<svg width="50" height="37" viewBox="0 0 50 37" fill="none" xmlns="http://www.w3.org/2000/svg">
<path d="M22.5656 36.7299H3.22734C2.3394 36.7299 1.57953 36.4183 0.947721 35.795C0.315916 35.1718 9.1073e-06 34.4162 1.96902e-10 33.5282C1.96902e-10 32.6232 0.315903 31.859 0.947708 31.2358C1.57951 30.6125 2.33938 30.3009 3.22731 30.3009H22.5655C23.4535 30.3009 24.2134 30.6125 24.8452 31.2358C25.477 31.8591 25.7929 32.6232 25.7929 33.5283C25.7929 34.4162 25.477 35.1718 24.8452 35.7951C24.2134 36.4183 23.4535 36.73 22.5656 36.7299V36.7299ZM22.5656 6.42908H3.22734C2.3394 6.42908 1.57953 6.11745 0.947721 5.49418C0.315916 4.87091 9.1073e-06 4.1153 1.96902e-10 3.22734C-9.1069e-06 2.33939 0.315898 1.57952 0.947721 0.947741C1.57954 0.315964 2.33941 5.73497e-05 3.22732 2.00109e-05H22.5656C23.4535 2.00109e-05 24.2134 0.315923 24.8452 0.947728C25.477 1.57953 25.7929 2.3394 25.7929 3.22733C25.7929 4.11526 25.477 4.87087 24.8452 5.49417C24.2134 6.11746 23.4535 6.42908 22.5656 6.42904V6.42908ZM22.5656 21.5926H3.22734C2.3394 21.5926 1.57953 21.2767 0.947721 20.6449C0.315916 20.0131 9.1073e-06 19.2532 1.96902e-10 18.3653C-9.1069e-06 17.4774 0.315898 16.7175 0.947721 16.0857C1.57954 15.4539 2.33941 15.138 3.22732 15.138H22.5656C23.4535 15.138 24.2134 15.4539 24.8452 16.0857C25.477 16.7175 25.7929 17.4774 25.7929 18.3653C25.7929 19.2532 25.477 20.0131 24.8452 20.6449C24.2134 21.2767 23.4535 21.5926 22.5656 21.5926ZM23.0799 36.7299C22.192 36.7299 21.4321 36.4183 20.8003 35.795C20.1685 35.1718 19.8526 34.4162 19.8526 33.5282V3.22734C19.8526 2.3394 20.1685 1.57953 20.8003 0.947723C21.4321 0.315918 22.1919 9.1073e-06 23.0799 1.96903e-10C23.9678 -9.1069e-06 24.7277 0.315899 25.3595 0.947723C25.9913 1.57955 26.3072 2.33941 26.3072 3.22732V33.5282C26.3072 34.4161 25.9913 35.1717 25.3595 35.795C24.7277 36.4183 23.9678 36.7299 23.0799 36.7299L23.0799 36.7299ZM46.7983 36.7299C45.842 36.7299 44.9882 36.3201 44.2369 35.5005L32.4289 20.3632C31.9849 19.7314 31.7629 19.0654 31.7629 18.3653C31.7629 17.6652 31.9849 17.0078 32.4289 16.393L44.2369 1.22946C44.9199 0.409821 45.7737 1.66776e-06 46.7983 1.66776e-06C47.4984 1.66776e-06 48.1558 0.230525 48.7705 0.691572C49.5902 1.34045 50 2.18571 50 3.22733C50 3.92744 49.778 4.58486 49.334 5.19959L39.063 18.3654L49.334 31.5312C49.778 32.1459 50 32.8034 50 33.5035C50 33.6401 49.9701 33.956 49.9104 34.4512C49.8506 34.9464 49.4707 35.4843 48.7706 36.0648C48.1558 36.5088 47.4984 36.7308 46.7983 36.7308L46.7983 36.7299Z" fill="#39FF14"/>
</svg>
