<svg width="50" height="50" viewBox="0 0 50 50" fill="none" xmlns="http://www.w3.org/2000/svg">
<g clip-path="url(#clip0_30_53)">
<path d="M3.17708 12.2291C-1.25209 18.5916 -0.70209 26.8666 2.68333 33.6229C2.76041 33.7874 2.84583 33.9437 2.92916 34.0999C2.97708 34.2083 3.03124 34.3083 3.08958 34.4124C3.11666 34.4687 3.15416 34.5291 3.18749 34.5833C3.24166 34.6916 3.29999 34.7958 3.35624 34.9L3.68333 35.4541C3.74583 35.5562 3.80208 35.6562 3.87083 35.7583C3.98749 35.9541 4.12083 36.1479 4.24166 36.3437C4.29583 36.427 4.34583 36.5062 4.40624 36.5875C4.60826 36.9055 4.82373 37.2148 5.05208 37.5145C5.21458 37.7374 5.37708 37.9541 5.55208 38.1708C5.60833 38.25 5.67291 38.3291 5.73124 38.4104L6.18958 38.9708C6.24791 39.0333 6.30416 39.1104 6.36458 39.177C6.56874 39.4229 6.78541 39.6625 7.00208 39.9062L7.01249 39.9187C7.27703 40.2524 7.57358 40.5594 7.89791 40.8354C8.06458 41.0083 8.23124 41.1791 8.40833 41.3458L8.61874 41.5479C8.84999 41.7666 9.08333 41.9833 9.32708 42.1916C9.33124 42.1916 9.33333 42.1958 9.33749 42.1979L9.45624 42.302C9.66874 42.4874 9.88333 42.6729 10.1021 42.8437L10.3625 43.0625C10.5396 43.2041 10.725 43.3395 10.9042 43.4791L11.1896 43.6979C11.3833 43.8437 11.5896 43.9874 11.7875 44.1291C11.8604 44.1812 11.9333 44.2333 12.0083 44.2812L12.0708 44.3291L12.6542 44.7145L12.9042 44.8812C13.2125 45.077 13.5167 45.2645 13.8208 45.4479C13.9062 45.4895 13.9958 45.5395 14.0771 45.5895C14.3021 45.7187 14.5354 45.8499 14.7625 45.9708C14.8875 46.0416 15.0167 46.102 15.1458 46.1666C15.3021 46.2541 15.4646 46.3395 15.6333 46.427C15.6736 46.4393 15.7127 46.4554 15.75 46.4749C15.8187 46.5062 15.8833 46.5395 15.95 46.5729C16.2 46.6979 16.4604 46.8187 16.7312 46.9375C16.7812 46.9583 16.8354 46.9791 16.8896 47.0083C17.1896 47.1395 17.4917 47.2645 17.8021 47.3875C17.8729 47.4083 17.9479 47.4437 18.0208 47.4708C18.3021 47.577 18.5917 47.6854 18.8771 47.7874L18.9812 47.8249C19.3021 47.9333 19.6167 48.0375 19.9396 48.1375C20.0146 48.1583 20.0917 48.1854 20.1708 48.2062C20.5042 48.3062 20.825 48.4249 21.1583 48.4916C42.5604 52.3916 48.7792 35.6229 48.7792 35.6229C43.5542 42.427 34.2833 44.2208 25.5 42.2249C25.175 42.1499 24.85 42.0458 24.5208 41.9499C24.1243 41.8322 23.7305 41.7058 23.3396 41.5708L23.2104 41.5208C22.9271 41.4249 22.6542 41.3187 22.3771 41.2124C22.3017 41.1819 22.2253 41.1541 22.1479 41.1291C21.8396 41.0041 21.5437 40.877 21.2458 40.7458C21.1812 40.725 21.1271 40.6958 21.0625 40.6708C20.8101 40.5549 20.5587 40.4368 20.3083 40.3166C20.2333 40.2834 20.1596 40.2473 20.0875 40.2083C19.8917 40.1166 19.6958 40.0104 19.5042 39.9104C19.3725 39.8472 19.2426 39.7805 19.1146 39.7104C18.8771 39.5854 18.6417 39.45 18.4062 39.3208C18.3354 39.2708 18.2542 39.2291 18.1729 39.1833C17.865 39.0007 17.5601 38.8132 17.2583 38.6208C17.1746 38.5694 17.0926 38.5152 17.0125 38.4583C16.7914 38.3213 16.5746 38.1775 16.3625 38.027C16.2896 37.9791 16.2229 37.927 16.1479 37.875C15.9403 37.7316 15.7354 37.5844 15.5333 37.4333C15.4458 37.3624 15.3521 37.2958 15.2583 37.2249C15.075 37.0791 14.8896 36.9437 14.7062 36.7916L14.4604 36.5937C14.2238 36.4041 13.9911 36.2096 13.7625 36.0104C13.7389 35.9865 13.7131 35.9649 13.6854 35.9458L12.9625 35.2874L12.7542 35.0916C12.5833 34.9166 12.4083 34.75 12.2333 34.5791L12.0292 34.3708C11.8091 34.1518 11.5944 33.9274 11.3854 33.6979L11.3542 33.6645C11.1333 33.4229 10.9167 33.1749 10.7021 32.9249C10.6458 32.8624 10.5917 32.7916 10.5354 32.7229L10.0625 32.1458C9.82226 31.8371 9.58613 31.5253 9.35416 31.2104C4.48333 24.5625 2.72083 15.3833 6.61874 7.8562M16.9167 6.87078C13.7083 11.477 13.8875 17.6395 16.3875 22.5124C16.8006 23.3324 17.2727 24.1213 17.8 24.8729C18.2792 25.5604 18.8083 26.375 19.4521 26.9312C19.675 27.1854 19.9167 27.4312 20.1687 27.6812L20.3562 27.8687C20.5937 28.0979 20.8396 28.3208 21.0854 28.5458L21.1187 28.5729C21.3997 28.8181 21.6873 29.0557 21.9812 29.2854C22.0521 29.3333 22.1125 29.3895 22.1812 29.4375C22.4729 29.6625 22.7687 29.8791 23.0729 30.0958L23.1042 30.1145C23.2333 30.2083 23.3708 30.2937 23.5167 30.3854C23.575 30.4229 23.6417 30.4729 23.7042 30.5104C23.925 30.652 24.1417 30.7854 24.3667 30.9208C24.4021 30.9354 24.4333 30.9541 24.4667 30.9687C24.6542 31.0833 24.8583 31.1937 25.0542 31.2958C25.1229 31.3375 25.1896 31.3687 25.2625 31.4083C25.4 31.477 25.5375 31.55 25.6729 31.6208L25.7396 31.65C26.0208 31.7895 26.3083 31.9187 26.5896 32.0458C26.6604 32.0749 26.7208 32.0979 26.7812 32.127C27.0125 32.227 27.2479 32.3229 27.4812 32.4124C27.5854 32.4479 27.6833 32.4895 27.7812 32.5208C27.9937 32.5999 28.2187 32.6729 28.4271 32.7458L28.7187 32.8395C29.025 32.9333 29.3333 33.0562 29.6542 33.1104C46.175 35.8458 50 23.1208 50 23.1208C46.5562 28.0791 39.8917 30.4395 32.7896 28.5958C32.4752 28.5146 32.1633 28.4243 31.8542 28.3249C31.7542 28.2958 31.6667 28.2645 31.5708 28.2354C31.3542 28.1604 31.1312 28.0895 30.9208 28.0083L30.6208 27.8958C30.3854 27.802 30.1479 27.7145 29.9208 27.6145C29.85 27.5833 29.7854 27.5625 29.7312 27.5312C29.4396 27.4 29.1458 27.2708 28.8604 27.1312L28.4312 26.9083L28.1833 26.7833C27.9965 26.6841 27.8124 26.5799 27.6312 26.4708C27.5868 26.449 27.5437 26.4246 27.5021 26.3979C27.2812 26.2604 27.05 26.127 26.8396 25.9854C26.7687 25.9458 26.7042 25.8979 26.6375 25.8562L26.2042 25.5729C25.9042 25.3645 25.6104 25.1395 25.3125 24.9208C25.2458 24.8604 25.1812 24.8104 25.1167 24.7562C21.9937 22.302 19.5312 18.9437 18.3625 15.1458C17.1333 11.1937 17.4042 6.76453 19.5292 3.16662M28.4708 2.86037C26.5771 5.63953 26.3958 9.08953 27.7 12.152C29.0854 15.4083 31.9167 17.9645 35.2167 19.1729C35.3521 19.225 35.4833 19.2687 35.625 19.3187L35.8083 19.375C36 19.4375 36.1937 19.5062 36.3917 19.5499C45.5187 21.3104 47.9896 14.8625 48.6542 13.9166C46.4812 17.0375 42.8375 17.7854 38.3667 16.6979C38.0024 16.6068 37.6435 16.4955 37.2917 16.3645C36.8535 16.2109 36.4237 16.0342 36.0042 15.8354C35.21 15.4512 34.455 14.9907 33.75 14.4604C29.7458 11.425 27.2646 5.63537 29.8771 0.918701" fill="#0865A6"/>
</g>
<defs>
<clipPath id="clip0_30_53">
<rect width="50" height="50" fill="white"/>
</clipPath>
</defs>
</svg>
