<svg width="320" height="73.46157581488323" viewBox="0 0 320 73.46157581488323" class="css-1j8o68f"><defs id="SvgjsDefs2144"></defs><g id="SvgjsG2145" featurekey="monogramFeature-0" transform="matrix(1.7485634303817699,0,0,1.7485634303817699,-6.147212433274253,-31.45393091925781)" fill="#39ff14"><path d="M29.326 60 l-22.119 0 q-1.5234375 0 -2.607421875 -1.069335938 t-1.084 -2.5928 q0 -1.552734375 1.083984375 -2.622070313 t2.6074 -1.0693 l22.119 0 q1.5234375 0 2.607421875 1.069335938 t1.084 2.6221 q0 1.5234375 -1.083984375 2.592773438 t-2.6074 1.0693 z M29.326 25.342 l-22.119 0 q-1.5234375 0 -2.607421875 -1.069335938 t-1.084 -2.5928 t1.084 -2.6074 t2.6074 -1.084 l22.119 0 q1.5234375 0 2.607421875 1.083984375 t1.084 2.6074 t-1.084 2.5928 t-2.6074 1.0693 z M29.326 42.686 l-22.119 0 q-1.5234375 0 -2.607421875 -1.083984375 t-1.084 -2.6074 t1.084 -2.6074 t2.6074 -1.084 l22.119 0 q1.5234375 0 2.607421875 1.083984375 t1.084 2.6074 t-1.084 2.6074 t-2.6074 1.084 z M29.914275390625 60 q-1.5234375 0 -2.607421875 -1.069335938 t-1.084 -2.5928 l0 -34.658 q0 -1.5234375 1.083984375 -2.607421875 t2.6074 -1.084 t2.6074 1.084 t1.084 2.6074 l0 34.658 q0 1.5234375 -1.083984375 2.592773438 t-2.6074 1.0693 z M57.043275390625 60 q-1.640625 0 -2.9296875 -1.40625 l-13.506 -17.314 q-0.76171875 -1.083984375 -0.76171875 -2.28515625 t0.76172 -2.2559 l13.506 -17.344 q1.171875 -1.40625 2.9296875 -1.40625 q1.201171875 0 2.255859375 0.791015625 q1.40625 1.11328125 1.40625 2.900390625 q0 1.201171875 -0.76171875 2.255859375 l-11.748 15.059 l11.748 15.059 q0.76171875 1.0546875 0.76171875 2.255859375 q0 0.234375 -0.1025390625 1.083984375 t-1.3037 1.8457 q-1.0546875 0.76171875 -2.255859375 0.76171875 z"></path></g><g id="SvgjsG2146" featurekey="nameFeature-0" transform="matrix(0.6996411264632082,0,0,0.6996411264632082,117.36934937117063,17.736753647451586)" fill="#ffffff"><path d="M4.08 40 c-0.2 0 -0.32 -0.16 -0.32 -0.36 l0 -25.68 c0 -0.2 0.12 -0.36 0.32 -0.36 l13.6 0 c0.2 0 0.36 0.16 0.36 0.36 l0 4.28 c0 0.2 -0.16 0.36 -0.36 0.36 l-8.64 0 l0 5.44 l6.72 0 c0.2 0 0.32 0.16 0.32 0.36 l0 4.36 c0 0.2 -0.12 0.36 -0.32 0.36 l-6.72 0 l0 5.88 l8.64 0 c0.2 0 0.36 0.16 0.36 0.36 l0 4.28 c0 0.2 -0.16 0.36 -0.36 0.36 l-13.6 0 z M6.08 16.12 l0 21.28 c0 0.24 0.16 0.32 0.32 0.32 l9.2 0 c0.36 0 0.28 -0.48 0 -0.48 l-9 0 l0 -10.44 l7.36 0 c0.24 0 0.24 -0.56 0 -0.56 l-7.36 0 l0 -9.92 l9 0 c0.28 0 0.36 -0.52 0 -0.52 l-9.2 0 c-0.16 0 -0.32 0.12 -0.32 0.32 z M27.799999999999997 13.8 l3.48 6.72 l3.4 -6.72 c0.12 -0.2 0.16 -0.2 0.32 -0.2 l4.48 0 c0.24 0 0.4 0.24 0.32 0.44 l-5.8 13.48 l0 12.12 c0 0.2 -0.16 0.36 -0.36 0.36 l-4.72 0 c-0.12 0 -0.28 -0.16 -0.28 -0.36 l0 -12.12 l-5.96 -13.4 c-0.08 -0.28 0.04 -0.52 0.32 -0.52 l4.48 0 c0.16 0 0.2 0 0.32 0.2 z M31.479999999999997 26.6 l5 -10.4 c0.12 -0.24 -0.28 -0.44 -0.44 -0.16 l-4.76 9.96 l-4.88 -9.96 c-0.16 -0.28 -0.6 -0.08 -0.48 0.2 l5.12 10.36 l0 11.04 c0 0.28 0.44 0.32 0.44 0 l0 -11.04 z M45.56 40 c-0.2 0 -0.32 -0.16 -0.32 -0.36 l0 -25.68 c0 -0.2 0.12 -0.36 0.32 -0.36 l13.6 0 c0.2 0 0.36 0.16 0.36 0.36 l0 4.28 c0 0.2 -0.16 0.36 -0.36 0.36 l-8.64 0 l0 5.44 l6.72 0 c0.2 0 0.32 0.16 0.32 0.36 l0 4.36 c0 0.2 -0.12 0.36 -0.32 0.36 l-6.72 0 l0 5.88 l8.64 0 c0.2 0 0.36 0.16 0.36 0.36 l0 4.28 c0 0.2 -0.16 0.36 -0.36 0.36 l-13.6 0 z M47.56 16.12 l0 21.28 c0 0.24 0.16 0.32 0.32 0.32 l9.2 0 c0.36 0 0.28 -0.48 0 -0.48 l-9 0 l0 -10.44 l7.36 0 c0.24 0 0.24 -0.56 0 -0.56 l-7.36 0 l0 -9.92 l9 0 c0.28 0 0.36 -0.52 0 -0.52 l-9.2 0 c-0.16 0 -0.32 0.12 -0.32 0.32 z M70.4 18.6 l-5.68 0 c-0.2 0 -0.36 -0.16 -0.36 -0.36 l0 -4.28 c0 -0.2 0.16 -0.36 0.36 -0.36 l16.68 0 c0.2 0 0.36 0.16 0.36 0.36 l0 4.28 c0 0.2 -0.16 0.36 -0.36 0.36 l-5.68 0 l0 21.04 c0 0.2 -0.16 0.36 -0.36 0.36 l-4.6 0 c-0.2 0 -0.36 -0.16 -0.36 -0.36 l0 -21.04 z M78.96000000000001 15.8 l-12.08 0 c-0.28 0 -0.28 0.52 0 0.52 l5.92 0 l0 21.2 c0 0.28 0.52 0.28 0.52 0 l0 -21.2 l5.64 0 c0.4 0 0.36 -0.52 0 -0.52 z M100.08000000000001 30.759999999999998 l0 -16.8 c0 -0.2 0.16 -0.36 0.36 -0.36 l4.56 0 c0.2 0 0.36 0.16 0.36 0.36 l0 18.08 c0 5.76 -3.16 8.36 -9.12 8.36 c-5.64 0 -9.16 -2.24 -9.16 -8.36 l0 -18.08 c0 -0.2 0.16 -0.36 0.36 -0.36 l4.6 0 c0.2 0 0.36 0.16 0.36 0.36 l0 16.8 c0 3.48 1.96 4.24 3.6 4.24 l0.48 0 c2.48 0 3.6 -1.68 3.6 -4.24 z M89.56 16.16 l0 15.56 c0 3.6 2.44 6.2 6.24 6.2 l1 0 c3.8 0 6.28 -2.72 6.28 -6.2 l0 -15.56 c0 -0.36 -0.48 -0.4 -0.48 0 l0 15.56 c0 3.28 -2.36 5.68 -5.8 5.68 l-1 0 c-3.36 0 -5.76 -2.16 -5.76 -5.68 l0 -15.56 c0 -0.36 -0.48 -0.36 -0.48 0 z M144.32000000000002 13.600000000000001 c0.28 0 0.44 0.32 0.28 0.56 l-6.28 8.68 l6.64 16.72 c0.08 0.2 -0.04 0.44 -0.32 0.44 l-5.4 0 c-0.12 0 -0.24 -0.08 -0.28 -0.24 l-4.16 -11.96 l-2.04 2.8 l0 9.04 c0 0.2 -0.16 0.36 -0.36 0.36 l-4.56 0 c-0.2 0 -0.32 -0.16 -0.32 -0.36 l0 -25.68 c0 -0.2 0.12 -0.36 0.32 -0.36 l4.56 0 c0.2 0 0.36 0.16 0.36 0.36 l0 8.28 l6.28 -8.48 c0.12 -0.16 0.16 -0.16 0.32 -0.16 l4.96 0 z M129.92000000000002 16 l0 21.56 c0 0.28 0.44 0.28 0.44 0 l0 -7.76 l5 -6.64 l5.6 14.48 c0.08 0.2 0.56 0.08 0.44 -0.24 l-5.68 -14.76 l5.2 -6.92 c0.2 -0.2 -0.16 -0.56 -0.4 -0.32 l-10.16 13.6 l0 -13 c0 -0.28 -0.44 -0.28 -0.44 0 z M151.08000000000004 40 c-0.2 0 -0.32 -0.16 -0.32 -0.36 l0 -25.68 c0 -0.2 0.12 -0.36 0.32 -0.36 l4.56 0 c0.2 0 0.36 0.16 0.36 0.36 l0 25.68 c0 0.2 -0.16 0.36 -0.36 0.36 l-4.56 0 z M153.16000000000003 16 l0 21.56 c0 0.36 0.44 0.36 0.44 0 l0 -21.56 c0 -0.28 -0.44 -0.28 -0.44 0 z M174.28000000000003 13.96 c0 -0.2 0.16 -0.36 0.36 -0.36 l4.6 0 c0.2 0 0.36 0.16 0.36 0.36 l0 25.68 c0 0.2 -0.16 0.36 -0.36 0.36 l-4.44 0 c-0.16 0 -0.32 -0.08 -0.36 -0.2 l-5.84 -13.16 l0 13 c0 0.2 -0.16 0.36 -0.36 0.36 l-4.56 0 c-0.2 0 -0.32 -0.16 -0.32 -0.36 l0 -25.68 c0 -0.2 0.12 -0.36 0.32 -0.36 l4.72 0 c0.16 0 0.24 0.12 0.28 0.2 l5.6 12.92 l0 -12.76 z M177.16000000000003 37.6 l0 -21.6 c0 -0.28 -0.52 -0.36 -0.52 0 l0 20.56 l-10.44 -20.64 c-0.12 -0.16 -0.44 -0.16 -0.44 0.08 l0 21.56 c0 0.36 0.48 0.36 0.48 0 l0 -20.52 l10.4 20.6 c0.16 0.28 0.52 0.2 0.52 -0.04 z M195.4 30.4 c-0.2 0 -0.36 -0.16 -0.36 -0.36 l0 -4.28 c0 -0.2 0.16 -0.36 0.36 -0.36 l9.16 0 c0.2 0 0.36 0.16 0.36 0.36 l0 6.28 c0 5.88 -3.16 8.36 -9.12 8.36 c-5.56 0 -9.2 -2.2 -9.2 -8.36 l0 -10.52 c0 -5.8 3.24 -8.28 9.2 -8.28 c5.6 0 9.12 2.16 9.12 8.28 l0 0.84 c0 0.2 -0.16 0.36 -0.36 0.36 l-4.6 0 c-0.2 0 -0.36 -0.16 -0.36 -0.36 l0 -0.52 c0 -2.44 -1.56 -3.24 -3.6 -3.24 l-0.48 0 c-1.32 0 -2.2 0.36 -2.8 1.16 c-0.56 0.76 -0.76 1.76 -0.76 3.08 l0 7.92 c0 3.48 1.88 4.24 3.56 4.24 l0.48 0 c2.44 0 3.6 -1.68 3.6 -4.24 l0 -0.36 l-4.2 0 z M189.04000000000002 31.759999999999998 c0 4.44 2.16 6.08 6.72 6.08 c4.8 0 6.76 -2 6.76 -6.92 l0 -3 c0 -0.12 -0.08 -0.28 -0.16 -0.28 l-5.56 0 c-0.36 0 -0.28 0.52 0 0.52 l5.24 0 l0 2.76 c0 4.28 -1.64 6.48 -6.28 6.48 c-3.84 0 -6.24 -1.36 -6.24 -5.64 l0 -9.64 c0 -4.12 1.88 -5.96 6.24 -5.96 c3.24 0 6.2 1.8 5.96 4.56 c0 0.32 0.44 0.4 0.52 0.04 c0 -3.52 -3.2 -5.04 -6.48 -5.04 c-4 0 -6.72 1.44 -6.72 6.4 l0 9.64 z M220.72 23.8 c3.04 1.44 7 3.72 7 7.84 c0 1.2 -0.2 3.52 -1.52 5.48 c-1.48 2.2 -3.8 3.28 -7 3.28 c-3.4 0 -7.36 -1.64 -8.6 -5.36 c-0.04 -0.12 0 -0.24 0.12 -0.32 l3.68 -3.16 c0.16 -0.12 0.4 -0.12 0.52 0.08 c0.08 0.2 0.24 0.52 0.44 0.92 c0.6 1.24 2.04 2.48 3.64 2.48 c1.24 0 2.92 -0.68 2.92 -2.6 c0 -1.84 -2.52 -2.88 -4.08 -3.48 c-1.8 -0.72 -3.64 -1.64 -5.2 -3 c-1.64 -1.52 -2.44 -3.2 -2.44 -5.2 c0 -5 4.6 -7.52 8.96 -7.52 c3.44 0 6 1.8 7.68 5.36 c0.08 0.16 0 0.36 -0.12 0.44 l-3.56 2.48 c-0.16 0.08 -0.24 0.08 -0.4 -0.12 c-1.36 -1.96 -2.56 -2.88 -4.16 -2.88 c-0.84 0 -2.8 0.32 -2.8 1.8 c0 1.8 3.32 2.72 4.92 3.48 z M213.44 34.84 c1 2 3.76 3.16 6 3.16 c2.92 0 5.28 -2 5.6 -5.04 c0.4 -3.72 -2.52 -5.32 -5.4 -6.76 l-1.28 -0.56 c-2.96 -1.32 -5.12 -2.32 -5.12 -5.08 c0 -3.04 2.8 -4.44 5.56 -4.44 c2.52 0 3.84 1.48 4.52 2.4 c0.24 0.32 0.64 0.04 0.4 -0.28 c-0.68 -0.84 -2.12 -2.6 -4.92 -2.6 c-3.16 0 -6.04 1.56 -6.04 4.92 c0 3 2.4 4.16 5.44 5.56 l1.24 0.6 c3.96 1.88 5.4 3.64 5.08 6.2 c-0.6 4.08 -3.72 4.6 -5.08 4.6 c-3 0 -5 -1.8 -5.6 -2.92 c-0.2 -0.2 -0.48 0 -0.4 0.24 z M238.60000000000002 13.600000000000001 c0.2 0 0.36 0.16 0.36 0.36 l0 21 l8.64 0 c0.2 0 0.36 0.16 0.36 0.36 l0 4.32 c0 0.2 -0.16 0.36 -0.36 0.36 l-13.56 0 c-0.2 0 -0.32 -0.16 -0.32 -0.36 l0 -25.68 c0 -0.2 0.12 -0.36 0.32 -0.36 l4.56 0 z M236.12 16.04 l0 21.52 c0 0.08 0.08 0.2 0.24 0.2 l9.24 0 c0.32 0 0.32 -0.52 0 -0.52 l-9.04 0 l0 -21.2 c0 -0.28 -0.44 -0.32 -0.44 0 z M253.88000000000002 40 c-0.2 0 -0.32 -0.16 -0.32 -0.36 l0 -25.68 c0 -0.2 0.12 -0.36 0.32 -0.36 l13.6 0 c0.2 0 0.36 0.16 0.36 0.36 l0 4.28 c0 0.2 -0.16 0.36 -0.36 0.36 l-8.64 0 l0 5.44 l6.72 0 c0.2 0 0.32 0.16 0.32 0.36 l0 4.36 c0 0.2 -0.12 0.36 -0.32 0.36 l-6.72 0 l0 5.88 l8.64 0 c0.2 0 0.36 0.16 0.36 0.36 l0 4.28 c0 0.2 -0.16 0.36 -0.36 0.36 l-13.6 0 z M255.88000000000002 16.12 l0 21.28 c0 0.24 0.16 0.32 0.32 0.32 l9.2 0 c0.36 0 0.28 -0.48 0 -0.48 l-9 0 l0 -10.44 l7.36 0 c0.24 0 0.24 -0.56 0 -0.56 l-7.36 0 l0 -9.92 l9 0 c0.28 0 0.36 -0.52 0 -0.52 l-9.2 0 c-0.16 0 -0.32 0.12 -0.32 0.32 z M277.6 13.8 l3.48 6.72 l3.4 -6.72 c0.12 -0.2 0.16 -0.2 0.32 -0.2 l4.48 0 c0.24 0 0.4 0.24 0.32 0.44 l-5.8 13.48 l0 12.12 c0 0.2 -0.16 0.36 -0.36 0.36 l-4.72 0 c-0.12 0 -0.28 -0.16 -0.28 -0.36 l0 -12.12 l-5.96 -13.4 c-0.08 -0.28 0.04 -0.52 0.32 -0.52 l4.48 0 c0.16 0 0.2 0 0.32 0.2 z M281.28000000000003 26.6 l5 -10.4 c0.12 -0.24 -0.28 -0.44 -0.44 -0.16 l-4.76 9.96 l-4.88 -9.96 c-0.16 -0.28 -0.6 -0.08 -0.48 0.2 l5.12 10.36 l0 11.04 c0 0.28 0.44 0.32 0.44 0 l0 -11.04 z"></path></g></svg>