<svg width="320" height="73.46157581488323" viewBox="0 0 320 73.46157581488323" class="css-1j8o68f"><defs id="SvgjsDefs1624"></defs><g id="SvgjsG1625" featurekey="monogramFeature-0" transform="matrix(1.7485634303817699,0,0,1.7485634303817699,-6.147212433274253,-31.45393091925781)" fill="#ffffff"><path d="M29.326 60 l-22.119 0 q-1.5234375 0 -2.607421875 -1.069335938 t-1.084 -2.5928 q0 -1.552734375 1.083984375 -2.622070313 t2.6074 -1.0693 l22.119 0 q1.5234375 0 2.607421875 1.069335938 t1.084 2.6221 q0 1.5234375 -1.083984375 2.592773438 t-2.6074 1.0693 z M29.326 25.342 l-22.119 0 q-1.5234375 0 -2.607421875 -1.069335938 t-1.084 -2.5928 t1.084 -2.6074 t2.6074 -1.084 l22.119 0 q1.5234375 0 2.607421875 1.083984375 t1.084 2.6074 t-1.084 2.5928 t-2.6074 1.0693 z M29.326 42.686 l-22.119 0 q-1.5234375 0 -2.607421875 -1.083984375 t-1.084 -2.6074 t1.084 -2.6074 t2.6074 -1.084 l22.119 0 q1.5234375 0 2.607421875 1.083984375 t1.084 2.6074 t-1.084 2.6074 t-2.6074 1.084 z M29.914275390625 60 q-1.5234375 0 -2.607421875 -1.069335938 t-1.084 -2.5928 l0 -34.658 q0 -1.5234375 1.083984375 -2.607421875 t2.6074 -1.084 t2.6074 1.084 t1.084 2.6074 l0 34.658 q0 1.5234375 -1.083984375 2.592773438 t-2.6074 1.0693 z M57.043275390625 60 q-1.640625 0 -2.9296875 -1.40625 l-13.506 -17.314 q-0.76171875 -1.083984375 -0.76171875 -2.28515625 t0.76172 -2.2559 l13.506 -17.344 q1.171875 -1.40625 2.9296875 -1.40625 q1.201171875 0 2.255859375 0.791015625 q1.40625 1.11328125 1.40625 2.900390625 q0 1.201171875 -0.76171875 2.255859375 l-11.748 15.059 l11.748 15.059 q0.76171875 1.0546875 0.76171875 2.255859375 q0 0.234375 -0.1025390625 1.083984375 t-1.3037 1.8457 q-1.0546875 0.76171875 -2.255859375 0.76171875 z"></path></g><g id="SvgjsG1626" featurekey="nameFeature-0" transform="matrix(0.6154604383352517,0,0,0.6154604383352517,119.01526328398988,17.633184226422124)" fill="#ffffff"><path d="M1.6 40 l0 -31.2 l23.96 0 l0 7.76 l-15.96 0 l0 4.48 l11.24 0 l0 7.24 l-11.24 0 l0 4 l15.96 0 l0 7.72 l-23.96 0 z M28.76 41.12 c0 6.24 5.32 11.64 12.08 11.64 c6.92 0 12.12 -5.28 12.12 -11.64 l0 -24.32 l-6.48 0 l0 11.64 c0 2.92 -2.52 5.44 -5.64 5.44 c-3.08 0 -5 -2.24 -5.56 -5.04 l-0.04 -12.04 l-6.48 0 l0 11.88 c0 6.08 5.68 11.28 12.08 11.28 c2.04 0 3.96 -0.44 5.68 -1.32 l-0.04 2.48 c-0.08 3.08 -2.28 5.56 -5.64 5.56 c-3.16 0 -5.6 -2.64 -5.6 -5.56 l0 -0.36 l-6.48 0 l0 0.36 z M55.32 28.36 c0 -6.16 5.24 -11.52 11.96 -11.52 c6.68 0 11.92 5.36 11.92 11.52 c0 0.84 -0.08 1.64 -0.24 2.4 l-16.68 0.04 c0.88 1.8 2.72 3.08 5 3.08 c1.56 0 2.96 -0.64 3.92 -1.6 l7.28 0 c-1.64 4.36 -6 7.64 -11.2 7.64 c-6.72 0 -11.96 -5.2 -11.96 -11.4 l0 -0.16 z M62.48 25.6 l-0.2 0.56 l10.12 0 l-0.32 -0.56 c-0.96 -1.6 -2.68 -2.72 -4.8 -2.72 s-3.88 1.12 -4.8 2.72 z M87.07999999999998 22.32 l0 17.68 l6.48 0 l0 -7.04 c0 -2.56 -0.08 -5.16 -0.08 -7.72 l0 -2.92 l6.4 -0.08 l0 -5.48 l-6.4 0.04 l0 -8.08 l-6.36 0 l0 8.12 l-6.4 0 l0 5.48 l6.36 0 z M106.19999999999999 36.72 c2.28 2.44 5.36 3.28 8.72 3.28 c1.8 0 3.68 -0.28 5.36 -1 l0 1 l6.48 0 l0 -23.2 l-7.12 0 l0 11.2 c0 3.12 -1.32 5.16 -4.72 5.16 c-3.44 0 -4.68 -2.08 -4.68 -5.16 l0 -11.2 l-7.16 0 l0 11.56 c0 3.08 0.88 6 3.12 8.36 z M143.95999999999998 40 l0 -31.2 l8 0 l0 10.76 l9.68 -10.76 l10.32 0 l-12.32 13.4 l12.96 17.8 l-9.92 0 l-8.6 -11.76 l-2.12 2.36 l0 9.4 l-8 0 z M175.79999999999998 12.399999999999999 c0 1.88 1.52 3.56 3.64 3.56 c2.08 0 3.68 -1.68 3.68 -3.56 c0 -1.84 -1.6 -3.64 -3.68 -3.64 c-2.12 0 -3.64 1.8 -3.64 3.64 z M176.2 16.84 l0 23.16 l6.48 0 l0 -23.16 l-6.48 0 z M186.35999999999999 17.04 c0 7.52 -0.04 15.04 -0.04 22.6 l0 0.36 l6.48 0 l0 -11.84 c0 -2.88 2.52 -5.4 5.6 -5.4 c2.96 0 5.28 2.28 5.6 5 c0.04 0.4 0 0.84 0 1.24 l0.04 2.92 l0 8 l6.48 0.08 l0 -12.04 c0 -2.92 -1.48 -5.8 -3.6 -7.84 c-2.32 -2.24 -5.16 -3.44 -8.52 -3.44 c-2 0 -3.92 0.44 -5.68 1.32 l0 -1.2 l-6.36 0 l0 0.24 z M212.88 41.16 c0 6.24 5.32 11.64 12.08 11.64 c6.92 0 12.12 -5.28 12.12 -11.64 l0 -12.84 c0 -0.32 -0.04 -0.64 -0.04 -0.96 l0 -10.6 l-6.48 0 l0 1.16 c-1.72 -0.84 -3.6 -1.24 -5.6 -1.24 c-6.76 0 -12.08 5.4 -12.08 11.64 c0 6.28 5.32 11.68 12.08 11.68 c2.04 0 3.96 -0.44 5.68 -1.32 l-0.04 2.48 c-0.08 3.08 -2.28 5.56 -5.64 5.56 c-3.16 0 -5.6 -2.64 -5.6 -5.56 l0 -0.36 l-6.48 0 l0 0.36 z M228.96 32.28 c-1.08 1.04 -2.4 1.64 -4 1.64 c-3.16 0 -5.6 -2.64 -5.6 -5.6 c0 -2.92 2.44 -5.56 5.6 -5.56 c1.6 0 2.92 0.56 4 1.6 c0.8 0.8 1.6 2.2 1.6 3.28 l0 1.4 c0 1.04 -0.8 2.44 -1.6 3.24 z M240.32 32.96 c0 5.6 7.08 7.04 11.4 7.04 c4.28 0 10.68 -1.4 10.68 -6.8 c0 -1.64 -0.48 -2.44 -1.44 -3.64 c-0.8 -1.04 -2 -1.8 -3.12 -2.36 c-0.84 -0.44 -1.76 -0.8 -2.68 -1.08 c-0.92 -0.32 -1.84 -0.56 -2.72 -0.88 c-0.48 -0.16 -1.08 -0.32 -1.72 -0.56 c-0.6 -0.2 -1.2 -0.4 -1.56 -0.6 c-0.2 -0.12 -0.4 -0.24 -0.56 -0.36 s-0.2 -0.24 -0.2 -0.36 c0 -0.32 0.32 -0.6 0.96 -0.84 c0.64 -0.2 1.36 -0.28 1.8 -0.28 c0.68 0 1.6 0.16 2.36 0.48 c0.76 0.36 1.24 0.84 1.24 1.48 l0 1.04 l7.28 -0.04 l0 -1.12 c0 -2.36 -1.28 -4.08 -3.2 -5.36 c-2.36 -1.52 -5.04 -2 -7.8 -2 c-4.32 0 -10.52 1.8 -10.52 7.08 c0 0.92 0.24 1.8 0.72 2.6 c0.4 0.64 0.92 1.36 1.56 1.88 c1.32 1.04 3.32 1.88 4.92 2.4 c0.84 0.28 1.76 0.48 2.6 0.8 c0.48 0.16 1.12 0.32 1.76 0.52 c0.64 0.24 1.2 0.44 1.64 0.64 c0.44 0.24 0.72 0.52 0.72 0.84 c0 0.36 -0.28 0.6 -1 0.8 c-0.64 0.16 -1.4 0.16 -1.84 0.16 c-1 0 -2.28 -0.12 -3.04 -0.56 c-0.24 -0.12 -0.48 -0.32 -0.68 -0.52 s-0.32 -0.36 -0.32 -0.52 l-0.04 -1.4 l-7.24 0 l0 0.16 c0.04 0.44 0.04 0.88 0.04 1.36 z M265.6 40.04 l6.48 0 l-0.08 -31.28 l-6.36 0 l0 0.4 z M275.28000000000003 28.36 c0 -6.16 5.24 -11.52 11.96 -11.52 c6.68 0 11.92 5.36 11.92 11.52 c0 0.84 -0.08 1.64 -0.24 2.4 l-16.68 0.04 c0.88 1.8 2.72 3.08 5 3.08 c1.56 0 2.96 -0.64 3.92 -1.6 l7.28 0 c-1.64 4.36 -6 7.64 -11.2 7.64 c-6.72 0 -11.96 -5.2 -11.96 -11.4 l0 -0.16 z M282.44 25.6 l-0.2 0.56 l10.12 0 l-0.32 -0.56 c-0.96 -1.6 -2.68 -2.72 -4.8 -2.72 s-3.88 1.12 -4.8 2.72 z M302.36 41.12 c0 6.24 5.32 11.64 12.08 11.64 c6.92 0 12.12 -5.28 12.12 -11.64 l0 -24.32 l-6.48 0 l0 11.64 c0 2.92 -2.52 5.44 -5.64 5.44 c-3.08 0 -5 -2.24 -5.56 -5.04 l-0.04 -12.04 l-6.48 0 l0 11.88 c0 6.08 5.68 11.28 12.08 11.28 c2.04 0 3.96 -0.44 5.68 -1.32 l-0.04 2.48 c-0.08 3.08 -2.28 5.56 -5.64 5.56 c-3.16 0 -5.6 -2.64 -5.6 -5.56 l0 -0.36 l-6.48 0 l0 0.36 z"></path></g></svg>