<svg id="svg" xmlns="http://www.w3.org/2000/svg" xmlns:xlink="http://www.w3.org/1999/xlink" width="400" height="400" viewBox="0, 0, 400,400"><g id="svgg"><path id="path0" d="M5.657 101.558 C 1.845 103.883,0.006 107.443,0.006 112.500 C 0.006 117.557,1.845 121.117,5.657 123.442 C 9.672 125.890,390.328 125.890,394.343 123.442 C 402.051 118.742,402.051 106.258,394.343 101.558 C 390.328 99.110,9.672 99.110,5.657 101.558 M5.657 189.058 C -2.051 193.758,-2.051 206.242,5.657 210.942 C 9.672 213.390,390.328 213.390,394.343 210.942 C 402.051 206.242,402.051 193.758,394.343 189.058 C 390.328 186.610,9.672 186.610,5.657 189.058 M130.657 276.558 C 126.845 278.883,125.006 282.443,125.006 287.500 C 125.006 292.557,126.845 296.117,130.657 298.442 C 134.666 300.886,390.334 300.886,394.343 298.442 C 402.051 293.742,402.051 281.258,394.343 276.558 C 390.334 274.114,134.666 274.114,130.657 276.558 " stroke="none" fill="#000000" fill-rule="evenodd"></path></g></svg>